<svg width="97" height="97" viewBox="0 0 97 97" fill="none" xmlns="http://www.w3.org/2000/svg">
<path d="M48.5 0L49.258 44.2013L65.088 2.92491L50.6825 44.7198L79.6752 11.3468L51.8438 45.6942L90.5022 24.25L52.6018 47.0071L96.2632 40.0781L52.865 48.5L96.2632 56.9219L52.6018 49.9929L90.5022 72.75L51.8438 51.3058L79.6752 85.6532L50.6825 52.2802L65.088 94.0751L49.258 52.7987L48.5 97L47.742 52.7987L31.912 94.0751L46.3175 52.2802L17.3248 85.6532L45.1562 51.3058L6.49777 72.75L44.3982 49.9929L0.736824 56.9219L44.135 48.5L0.736824 40.0781L44.3982 47.0071L6.49777 24.25L45.1562 45.6942L17.3248 11.3468L46.3175 44.7198L31.912 2.92491L47.742 44.2013L48.5 0Z" fill="#AF3C00"/>
</svg>
